<?xml version="1.0" encoding="UTF-8"?> <svg xmlns="http://www.w3.org/2000/svg" width="49" height="49" viewBox="0 0 49 49" fill="none"><path d="M40.3398 7.79214C40.2569 7.76449 40.0772 7.72302 39.9528 7.7092C39.5934 7.68155 32.4471 8.6906 32.0186 8.84265C31.6731 8.93941 31.3275 9.28497 26.8628 13.7497L22.0664 18.5461L18.6108 18.3249C16.7171 18.2005 14.9892 18.1314 14.7819 18.1729L14.3949 18.2282L10.801 21.822C7.29008 25.333 7.22097 25.4021 7.13803 25.7891C7.09657 25.9964 7.08274 26.3144 7.15186 26.4941C7.29008 26.9087 7.7877 27.4063 8.17473 27.4893C8.3406 27.5169 9.48787 27.6137 10.7872 27.6966C12.0589 27.7796 13.2061 27.8487 13.3167 27.8487C13.4964 27.8625 13.5517 27.9178 13.6623 28.2219C13.7867 28.5398 14.3119 29.0927 17.0903 31.871C19.993 34.7738 20.4215 35.1746 20.7256 35.2852C21.0712 35.4096 21.085 35.4234 21.0988 35.769C21.1403 36.861 21.4029 40.4963 21.4582 40.7451C21.4858 40.9386 21.6379 41.1736 21.8591 41.3948C22.1493 41.6851 22.3152 41.768 22.6193 41.7956C23.421 41.8509 23.2828 41.9615 27.0978 38.1465C30.1388 35.1055 30.5949 34.6217 30.7055 34.3176C30.7746 34.1103 30.7331 32.6036 30.5949 30.475L30.3599 26.9502L35.0181 22.2644C37.5891 19.6934 39.7869 17.4403 39.8975 17.2468C40.0772 16.9841 40.2569 16.0027 40.6854 12.9756C41.031 10.4737 41.2106 8.93941 41.1415 8.73207C41.0862 8.45562 40.6163 7.93036 40.3398 7.79214ZM37.7688 13.3488L37.4371 15.7263L33.1244 20.0389L28.8118 24.3516L26.7108 22.2505L24.6236 20.1633L28.9639 15.823L33.2765 11.5104L35.654 11.1787C36.9671 10.999 38.0453 10.8884 38.0729 10.916C38.1006 10.9437 37.9485 12.0357 37.7688 13.3488ZM23.9601 29.1756L21.2094 31.9263L19.1222 29.8391L17.035 27.7519L19.7857 25.0012L22.5364 22.2505L24.6236 24.3377L26.7108 26.4249L23.9601 29.1756ZM17.4082 23.1766L15.5007 25.0842L14.0355 25.0012C13.22 24.9598 12.4044 24.8906 12.1971 24.8768L11.8377 24.8492L13.7452 22.9417L15.6666 21.048L17.4773 21.1447C18.4725 21.2 19.3019 21.2553 19.3157 21.2691C19.3295 21.2553 18.4587 22.1261 17.4082 23.1766ZM27.8028 31.5531L27.8995 33.3362L26.0058 35.2299C24.2227 37.013 24.1121 37.096 24.0845 36.9024C24.0707 36.778 24.0154 35.9487 23.9601 35.064L23.8633 33.4468L25.7432 31.5669C26.7799 30.5302 27.6369 29.7009 27.6645 29.7285C27.6784 29.77 27.7336 30.5717 27.8028 31.5531Z" fill="#FFC700"></path><path d="M13.4131 31.6777C12.5146 31.3874 10.9526 31.7053 10.068 32.3688C9.44599 32.8249 8.90691 33.5575 8.67193 34.2348C8.36783 35.0918 7.69052 39.8053 7.81493 40.2062C8.02226 40.8558 8.57517 41.2152 9.33541 41.1737C10.1371 41.1461 14.2839 40.4273 14.8368 40.2338C15.3482 40.0541 15.4864 39.9435 16.1361 39.2939C16.7443 38.6857 16.8963 38.4783 17.0484 38.0499C17.5184 36.8058 17.4354 35.4512 16.8963 34.9121C16.3573 34.3731 15.4035 34.3592 14.8783 34.8845C14.5327 35.23 14.4636 35.465 14.4498 36.2529C14.4359 36.7644 14.3806 36.9579 14.1733 37.2205C13.9245 37.5522 13.8416 37.5799 12.4317 37.801C11.6161 37.9254 10.9388 38.0222 10.9112 37.9946C10.8697 37.9531 11.0632 36.6538 11.2706 35.5341C11.4088 34.7877 11.7267 34.5251 12.6114 34.4975C13.0122 34.4836 13.4822 34.3731 13.648 34.2901C14.2839 33.9307 14.5465 33.0046 14.2009 32.3826C14.0074 31.9126 13.9245 31.8573 13.4131 31.6777Z" fill="#FFC700"></path></svg> 