<?xml version="1.0" encoding="UTF-8"?> <svg xmlns="http://www.w3.org/2000/svg" width="31" height="34" viewBox="0 0 31 34" fill="none"><path d="M28.0178 0.0988491C27.8077 0.138237 27.4532 0.269529 27.2169 0.400821C26.8361 0.610889 3.87312 14.843 1.68054 16.2215C0.380748 17.0356 0 17.6132 0 18.7161C0 19.6089 0.459523 20.4623 1.15537 20.8693C1.33918 20.9874 3.24292 21.7752 5.38298 22.6549C7.52305 23.5345 9.29549 24.2698 9.32175 24.296C9.34801 24.3354 9.43992 25.8847 9.51869 27.749C9.67624 31.609 9.68937 31.714 10.3458 32.4099C11.1467 33.2501 12.3415 33.4602 13.4049 32.9482C13.6281 32.83 14.5866 31.9504 16.1621 30.4142C17.9083 28.7074 18.6172 28.051 18.7223 28.0904C18.8011 28.1035 20.7836 28.9175 23.1206 29.8759L27.3744 31.6221H28.0965C28.7268 31.6353 28.8712 31.609 29.2388 31.4121C30.0791 30.9657 30.5911 30.2042 30.6567 29.2589C30.683 28.97 30.788 22.7862 30.8799 15.5388C31.0112 4.98292 31.0375 2.26517 30.9456 1.9632C30.6042 0.702794 29.3176 -0.124348 28.0178 0.0988491ZM28.3591 9.06611C28.3066 12.5454 28.2278 18.4404 28.1753 22.156C28.1228 25.8715 28.0572 28.9438 28.0178 28.97C27.9915 28.9963 26.0878 28.261 23.7902 27.3289C18.289 25.0838 18.8667 25.3464 18.9586 25.1232C19.7332 23.3507 28.346 2.84286 28.3197 2.82973C28.2935 2.80347 11.9345 21.04 11.2386 21.8671L11.0154 22.1166L6.80094 20.3966C3.30857 18.9787 2.59959 18.6636 2.71775 18.5848C2.79653 18.5323 7.62808 15.5257 13.4575 11.9152C19.2868 8.30462 25.0374 4.7466 26.2322 3.99823C27.427 3.26299 28.4116 2.65905 28.4248 2.68531C28.4379 2.72469 28.4116 5.58687 28.3591 9.06611ZM23.6195 9.59128C23.4488 9.90638 20.8098 14.7773 17.777 20.3835L12.2496 30.598L12.1971 29.9941C12.1708 29.6527 12.0789 27.8278 12.0001 25.924L11.8557 22.4579L17.8689 15.7358C21.1774 12.0464 23.8952 9.01359 23.9083 9.01359C23.9215 9.01359 23.7902 9.27618 23.6195 9.59128ZM21.2694 17.4951C19.5363 21.6045 18.0789 24.9787 18.0396 24.9919C17.987 25.005 17.1205 25.8321 16.1096 26.8431C15.1117 27.8409 14.324 28.5761 14.3765 28.458C14.7573 27.6965 24.3678 9.98516 24.381 10.0114C24.4072 10.0114 23.0024 13.3856 21.2694 17.4951Z" fill="#FFC700"></path></svg> 