<?xml version="1.0" encoding="UTF-8"?> <svg xmlns="http://www.w3.org/2000/svg" width="38" height="38" viewBox="0 0 38 38" fill="none"><path d="M19 0C8.5017 0 0 8.5017 0 19C0 29.4983 8.5017 38 19 38C29.4983 38 38 29.4983 38 19C38 8.5017 29.4983 0 19 0ZM19 34.4415C10.4661 34.4415 3.55847 27.5339 3.55847 19C3.55847 10.4661 10.4661 3.55847 19 3.55847C27.5339 3.55847 34.4415 10.4661 34.4415 19C34.4415 27.5339 27.5339 34.4415 19 34.4415ZM26.7127 17.2127H20.7712V8.30847C20.7712 7.32627 19.9661 6.52119 18.9839 6.52119C18.0017 6.52119 17.1966 7.32627 17.1966 8.30847V19C17.1966 19.9822 18.0017 20.7873 18.9839 20.7873H26.6966C27.6788 20.7873 28.4839 19.9822 28.4839 19C28.5 18.0178 27.6949 17.2127 26.7127 17.2127Z" fill="#FFC700"></path></svg> 