<?xml version="1.0" encoding="UTF-8"?> <svg xmlns="http://www.w3.org/2000/svg" width="49" height="53" viewBox="0 0 49 53" fill="none"><path d="M16.7891 8.72483C16.7891 8.72483 20.8334 7.08163 22.4199 10.5506C24.0064 14.0066 26.7763 20.0578 26.7763 20.0578L40.7559 13.511C40.7559 13.511 44.4751 11.5026 46.6598 15.4672L29.0521 23.8006C29.0521 23.8006 24.5136 25.9785 22.693 21.701C20.8724 17.4234 16.7891 8.73788 16.7891 8.73788V8.72483Z" fill="#FFC700"></path><path d="M42.1863 18.8184C42.1863 18.8184 43.8248 22.8742 40.3657 24.4653C36.9196 26.0563 30.8856 28.8341 30.8856 28.8341L37.4138 42.8535C37.4138 42.8535 39.4164 46.5834 35.4631 48.7743L27.1534 31.1163C27.1534 31.1163 24.9817 26.5649 29.2471 24.7391C33.5125 22.9133 42.1733 18.8184 42.1733 18.8184H42.1863Z" fill="#FFC700"></path><path d="M32.1989 44.2493C32.1989 44.2493 28.1546 45.8925 26.568 42.4235C24.9815 38.9676 22.2116 32.9164 22.2116 32.9164L8.23205 39.4631C8.23205 39.4631 4.51284 41.4715 2.32812 37.5069L19.9359 29.1735C19.9359 29.1735 24.4744 26.9956 26.295 31.2732C28.1155 35.5507 32.1989 44.2363 32.1989 44.2363V44.2493Z" fill="#FFC700"></path><path d="M6.72373 34.1806C6.72373 34.1806 5.08519 30.1247 8.54432 28.5337C11.9904 26.9426 18.0244 24.1648 18.0244 24.1648L11.4963 10.1454C11.4963 10.1454 9.49363 6.41555 13.4469 4.22461L21.7566 21.8826C21.7566 21.8826 23.9283 26.434 19.663 28.2598C15.3976 30.0856 6.73673 34.1806 6.73673 34.1806H6.72373Z" fill="#FFC700"></path></svg> 