<?xml version="1.0" encoding="UTF-8"?> <svg xmlns="http://www.w3.org/2000/svg" width="294" height="97" viewBox="0 0 294 97" fill="none"><path d="M94.6807 75.2612V47.5732H101.36V75.2612H94.6807Z" fill="white"></path><path d="M160.853 61.3248C160.853 52.9754 166.48 46.959 175.262 46.959C184.044 46.959 189.609 52.9754 189.609 61.3248C189.609 69.6742 184.291 75.8748 175.262 75.8748C166.233 75.8748 160.853 69.6742 160.853 61.3248ZM182.992 61.2634C182.992 56.7204 180.395 52.914 175.262 52.914C170.129 52.914 167.532 56.7204 167.532 61.2634C167.532 65.8065 170.067 69.9197 175.262 69.9197C180.457 69.9197 182.992 66.4818 182.992 61.2634Z" fill="white"></path><path d="M246.381 47.5732H269.077V53.8353H261.099V75.2612H254.42V53.8353H246.381V47.5732Z" fill="white"></path><path d="M228.818 53.8353H243.227V47.5732H222.139V53.8353H228.818Z" fill="white"></path><path d="M228.818 64.0263H241.99C241.99 63.4124 241.928 58.7465 237.228 58.501H222.139V75.1997H243.165V68.9377H228.818V64.0263Z" fill="white"></path><path d="M133.703 83.918H135.311V89.8116H141.248V91.4078H133.703V83.918Z" fill="#3565B0"></path><path d="M149.597 85.5139H144.278V86.8032H148.545V88.3994H144.278V89.6886H149.597V91.2848H142.608V83.7949H149.597V85.3911V85.5139Z" fill="#3565B0"></path><path d="M157.451 83.918C158.317 83.918 158.997 84.5933 158.997 85.4528V91.4078H157.327V89.0135H153.06V91.4078H151.452V85.4528C151.452 84.5933 152.132 83.918 152.998 83.918H157.451ZM157.389 87.3559V85.5142H153.122V87.3559H157.389Z" fill="#3565B0"></path><path d="M166.974 83.918C167.84 83.918 168.52 84.5933 168.52 85.4528V87.4173C168.52 88.2768 167.84 88.9521 166.974 88.9521H162.645C162.645 88.9521 162.645 88.9521 162.645 89.0135V91.4078H161.037V83.918H167.036H166.974ZM162.645 87.2946H166.912V85.5142H162.645V87.2946Z" fill="#3565B0"></path><path d="M181.445 83.918V85.5142H178.477V91.4078H176.869V85.5142H173.9V83.918H181.445Z" fill="#3565B0"></path><path d="M188.991 83.918C189.857 83.918 190.537 84.5933 190.537 85.4528V89.873C190.537 90.7325 189.857 91.4078 188.991 91.4078H184.538C183.672 91.4078 182.992 90.7325 182.992 89.873V85.4528C182.992 84.5933 183.672 83.918 184.538 83.918H188.991ZM184.662 89.8116H188.929V85.5756H184.662V89.8116Z" fill="#3565B0"></path><path d="M203.833 83.918V85.5142H200.864V91.4078H199.257V85.5142H196.288V83.918H203.833Z" fill="#3565B0"></path><path d="M213.171 83.918V91.4078H211.564V88.461H207.111V91.4078H205.503V83.918H207.111V86.8648H211.564V83.918H213.171Z" fill="#3565B0"></path><path d="M222.139 85.5139H216.82V86.8032H221.087V88.3994H216.82V89.6886H222.139V91.2848H215.15V83.7949H222.139V85.3911V85.5139Z" fill="#3565B0"></path><path d="M235.186 83.9178V85.514H229.868V86.8033H234.135V88.3995H229.868V91.3463H228.198V83.8564H235.186V83.9178Z" fill="#3565B0"></path><path d="M238.156 89.8116H242.423V83.918H244.093V89.873C244.093 90.7325 243.412 91.4078 242.547 91.4078H238.094C237.228 91.4078 236.548 90.7325 236.548 89.873V83.918H238.156V89.8116Z" fill="#3565B0"></path><path d="M253.183 83.918V85.5142H250.215V91.4078H248.607V85.5142H245.639V83.918H253.183Z" fill="#3565B0"></path><path d="M256.399 89.8116H260.666V83.918H262.336V89.873C262.336 90.7325 261.656 91.4078 260.79 91.4078H256.337C255.471 91.4078 254.791 90.7325 254.791 89.873V83.918H256.399V89.8116Z" fill="#3565B0"></path><path d="M271.798 87.4173C271.798 88.2768 271.117 88.9521 270.252 88.9521H270.19C270.746 89.5661 271.303 90.2414 271.798 90.8553V91.4078H270.128L268.025 88.9521H265.861C265.861 88.9521 265.861 88.9521 265.861 89.0135V91.4078H264.253V83.918H270.252C271.117 83.918 271.798 84.5933 271.798 85.4528V87.4173ZM265.861 87.2946H270.128V85.5142H265.861V87.2946Z" fill="#3565B0"></path><path d="M280.703 85.5139H275.385V86.8032H279.652V88.3994H275.385V89.6886H280.703V91.2848H273.715V83.7949H280.703V85.3911V85.5139Z" fill="#3565B0"></path><path d="M188.743 47.3277H193.01C193.01 47.3277 196.103 47.2049 197.216 50.7043C198.329 54.2036 203.462 68.0783 203.957 69.5517C204.018 69.5517 204.451 71.0251 203.957 69.5517L201.174 69.6745C199.937 69.6745 196.659 69.6745 195.237 65.8682C193.814 62.0619 189.238 48.6783 188.805 47.3277H188.743Z" fill="white"></path><path d="M201.545 75.1993H206.554C206.554 75.1993 209.152 75.4449 210.079 72.5594C211.007 69.674 219.727 47.3271 219.727 47.3271H212.429L201.545 75.1993Z" fill="white"></path><path d="M37.847 28.05C37.847 28.05 44.8352 25.226 47.5563 31.181C50.2774 37.1361 55.1011 47.45 55.1011 47.45L79.2816 36.2152C79.2816 36.2152 85.7132 32.7772 89.4856 39.5918L58.9972 53.8348C58.9972 53.8348 51.1432 57.5798 47.9892 50.2741C44.8352 42.9684 37.7852 28.05 37.7852 28.05H37.847Z" fill="#3465B0"></path><path d="M81.8176 45.3631C81.8176 45.3631 84.6624 52.3005 78.6636 55.0018C72.6649 57.703 62.2753 62.4916 62.2753 62.4916L73.5925 86.4961C73.5925 86.4961 77.0557 92.8809 70.1912 96.6258L55.8437 66.3594C55.8437 66.3594 52.0713 58.5625 59.4306 55.4315C66.7898 52.3005 81.8176 45.3018 81.8176 45.3018V45.3631Z" fill="#3465B0"></path><path d="M64.5634 88.9515C64.5634 88.9515 57.5752 91.7756 54.8541 85.8205C52.133 79.8655 47.3093 69.5515 47.3093 69.5515L23.1288 80.7863C23.1288 80.7863 16.6972 84.2243 12.9248 77.4098L43.4132 63.1667C43.4132 63.1667 51.2673 59.4218 54.4212 66.7275C57.5752 74.0332 64.6253 88.9515 64.6253 88.9515H64.5634Z" fill="#3465B0"></path><path d="M20.47 71.7002C20.47 71.7002 17.6252 64.7628 23.6239 62.0616C29.6227 59.3603 40.0122 54.5717 40.0122 54.5717L28.695 30.5672C28.695 30.5672 25.2318 24.1824 32.0964 20.4375L46.4439 50.704C46.4439 50.704 50.2163 58.5008 42.857 61.6318C35.4977 64.7628 20.47 71.7616 20.47 71.7616V71.7002Z" fill="#3465B0"></path><path d="M117.377 46.7139C109.461 46.7139 105.132 51.0727 105.132 58.317V75.0158H106.554C106.554 75.0158 111.811 75.1386 111.811 70.1658V59.2379C111.811 55.7999 113.048 53.0373 117.315 53.0373C121.582 53.0373 123.004 55.7999 123.004 59.2993V75.0158H129.683V58.317C129.683 51.0727 125.293 46.7139 117.253 46.7139H117.377Z" fill="white"></path><path d="M145.268 46.7139C137.352 46.7139 133.023 51.0727 133.023 58.317V75.0158H134.322C134.322 75.0158 139.702 75.1386 139.702 70.1658V59.2379C139.702 55.7999 140.939 53.0373 145.206 53.0373C149.474 53.0373 150.896 55.7999 150.896 59.2993V75.0158H157.575V58.317C157.575 51.0727 153.184 46.7139 145.145 46.7139H145.268Z" fill="white"></path></svg> 