<?xml version="1.0" encoding="UTF-8"?> <svg xmlns="http://www.w3.org/2000/svg" width="34" height="34" viewBox="0 0 34 34" fill="none"><g clip-path="url(#clip0_2005_157)"><path fill-rule="evenodd" clip-rule="evenodd" d="M27.2 5.1C27.2 2.9036 30.6 2.8016 30.6 5.1C30.6 7.31 27.2 7.3899 27.2 5.1ZM17 30.6C9.5013 30.6 3.4 24.4987 3.4 17C3.4 9.5013 9.5013 3.4 17 3.4C19.4854 3.4 21.8076 4.08151 23.8153 5.24941C23.8952 7.94391 26.0559 10.1047 28.7504 10.1846C29.9183 12.1923 30.6 14.5146 30.6 17C30.6 24.4987 24.4987 30.6 17 30.6ZM34 5.1C34 2.2831 31.7169 0 28.9 0C27.2748 0 25.8434 0.775369 24.9101 1.95857C22.5471 0.712469 19.8577 0 17 0C7.6109 0 0 7.6109 0 17C0 26.3891 7.6109 34 17 34C26.3891 34 34 26.3891 34 17C34 14.1423 33.2877 11.4545 32.0416 9.08977C33.2248 8.15647 34 6.7252 34 5.1ZM17 22.1C14.1882 22.1 11.9 19.8118 11.9 17C11.9 14.1882 14.1882 11.9 17 11.9C19.8118 11.9 22.1 14.1882 22.1 17C22.1 19.8118 19.8118 22.1 17 22.1ZM17 8.5C12.3063 8.5 8.5 12.3063 8.5 17C8.5 21.6937 12.3063 25.5 17 25.5C21.6937 25.5 25.5 21.6937 25.5 17C25.5 12.3063 21.6937 8.5 17 8.5Z" fill="#FFC700"></path></g><defs><clipPath id="clip0_2005_157"><rect width="34" height="34" fill="white"></rect></clipPath></defs></svg> 