<?xml version="1.0" encoding="UTF-8"?> <svg xmlns="http://www.w3.org/2000/svg" width="39" height="39" viewBox="0 0 39 39" fill="none"><g clip-path="url(#clip0_2005_152)"><path d="M0.420908 12.6942L8.81864 21.0919L6.62432 23.2861C6.35475 23.5556 6.20339 23.921 6.20339 24.3023C6.20339 24.6834 6.35475 25.0487 6.62432 25.3185L13.6817 32.3757C14.2428 32.9366 15.1525 32.9366 15.7137 32.3757L17.9078 30.1815L26.3063 38.5793C26.8677 39.1402 27.7774 39.1402 28.3384 38.5793L35.3955 31.5221C35.9567 30.9607 35.9567 30.0511 35.3955 29.4899L26.9978 21.0921L29.1921 18.898C29.4617 18.6284 29.613 18.2631 29.613 17.8818C29.613 17.5005 29.4617 17.1354 29.1921 16.8656L22.1344 9.80805C21.8539 9.52756 21.486 9.38731 21.1184 9.38731C20.7507 9.38731 20.3828 9.52756 20.1023 9.80805L17.908 12.0024L9.51048 3.60483C9.2298 3.32433 8.86213 3.18409 8.49447 3.18409C8.1268 3.18409 7.75894 3.32433 7.47845 3.60483L0.421099 10.662C0.151526 10.9316 0.000170269 11.2969 0.000170235 11.6782C-2.0533e-05 12.0593 0.151339 12.4246 0.420908 12.6942ZM32.3473 30.5059L27.3223 35.5308L19.9403 28.1495L23.2291 24.8606L24.9656 23.1242L32.3473 30.5059ZM21.1184 12.8563L26.1439 17.8816L23.9505 20.0748C23.9501 20.0752 23.9499 20.0754 23.9495 20.0757L21.5655 22.4597L14.6979 29.3272L9.67257 24.3021L11.8655 22.1091C11.8661 22.1085 11.8665 22.1082 11.8669 22.1078L15.3955 18.579L21.1184 12.8563ZM8.49428 6.65308L15.8758 14.0344L10.8505 19.0597L3.46897 11.6782L8.49428 6.65308Z" fill="#FFC700"></path><path d="M25.1394 2.87319C28.074 2.873 30.8329 4.01585 32.9081 6.091C34.9832 8.16615 36.1261 10.9253 36.1261 13.8599C36.1261 14.6537 36.7695 15.2969 37.563 15.2969C38.3568 15.2969 39 14.6535 39 13.8599C39 10.1576 37.5581 6.67689 34.9403 4.05896C32.3226 1.44103 28.8421 -0.00071519 25.1399 -0.000715514C25.1399 -0.000715514 25.1396 -0.000715514 25.1392 -0.000715514C24.3456 -0.000715583 23.7024 0.642656 23.7024 1.43624C23.7022 2.23001 24.3458 2.87319 25.1394 2.87319Z" fill="#FFC700"></path><path d="M25.7133 5.63691C24.9197 5.63691 24.2764 6.28009 24.2764 7.07386C24.2764 7.86763 24.9197 8.51081 25.7133 8.51081C26.9889 8.51081 28.1879 9.00762 29.09 9.90945C29.9918 10.8113 30.4884 12.0103 30.4884 13.2857C30.4884 14.0793 31.1316 14.7227 31.9254 14.7227C32.7189 14.7227 33.3623 14.0793 33.3623 13.2857C33.3625 11.2427 32.5668 9.32202 31.122 7.87721C29.6774 6.43241 27.7565 5.63691 25.7133 5.63691Z" fill="#FFC700"></path></g><defs><clipPath id="clip0_2005_152"><rect width="39" height="39" fill="white" transform="translate(39 39) rotate(-180)"></rect></clipPath></defs></svg> 