<?xml version="1.0" encoding="UTF-8"?> <svg xmlns="http://www.w3.org/2000/svg" width="30" height="32" viewBox="0 0 30 32" fill="none"><path d="M29.0503 0H24.4816C23.9572 0 23.5322 0.419139 23.5322 0.936275V4.97412H16.6283C15.2842 2.41497 13.4512 0.8595 11.4011 0.8595C7.18151 0.8595 3.87656 7.43527 3.87656 15.8302V22.3261L0.0829697 30.6811C-0.0486839 30.9707 -0.0224163 31.3062 0.152911 31.5724C0.327922 31.839 0.627624 31.9997 0.949795 31.9997H4.8263C5.35038 31.9997 5.77573 31.5805 5.77573 31.0634V28.3002H8.76483V31.0634C8.76483 31.5805 9.18986 31.9997 9.71426 31.9997H13.0885C13.6126 31.9997 14.0379 31.5805 14.0379 31.0634V28.3002H17.0445V31.0634C17.0445 31.5805 17.4698 31.9997 17.9939 31.9997H21.8701C22.1919 31.9997 22.4919 31.8387 22.667 31.5724C22.842 31.3062 22.8682 30.9704 22.7369 30.6811L18.9262 22.289V15.8302C18.9262 12.4325 18.3844 9.3331 17.46 6.84667H23.5325V31.0637C23.5325 31.5809 23.9575 32 24.4819 32H29.0506C29.575 32 30 31.5809 30 31.0637V0.936275C29.9997 0.419139 29.5747 0 29.0503 0ZM3.87656 30.1275H2.41476L3.87656 26.9085V27.3645V30.1275ZM12.1388 30.1275H10.6634V23.4253H12.1388V30.1275ZM17.0274 26.4279H14.0379V22.489C14.0379 21.9719 13.6126 21.5527 13.0885 21.5527H9.71394C9.18954 21.5527 8.76452 21.9719 8.76452 22.489V26.4279H5.77541V22.6591C5.79282 22.5614 5.78997 22.4625 5.77541 22.3654V16.7665H17.0274V26.4279ZM18.943 26.9085L20.4048 30.1271H18.943V26.9085ZM17.0128 14.8939H5.78997C6.01783 7.67995 8.84933 2.73205 11.4011 2.73205C12.4309 2.73205 13.5059 3.5385 14.4376 4.97412H11.4011V6.84667H15.4146C16.2935 8.92301 16.9115 11.6831 17.0128 14.8939ZM25.431 1.87255H28.1008V4.97412H25.431V1.87255ZM28.1008 6.84667V10.0572H25.431V6.84667H28.1008ZM25.431 11.9297H28.1008V15.1402H25.431V11.9297ZM25.431 30.1275V17.0127H28.1008V30.1271L25.431 30.1275Z" fill="#FFC700"></path></svg> 